<?xml version="1.0" encoding="utf-8"?>
<!-- Generator: Adobe Illustrator 16.0.0, SVG Export Plug-In . SVG Version: 6.00 Build 0)  -->
<!DOCTYPE svg PUBLIC "-//W3C//DTD SVG 1.1//EN" "http://www.w3.org/Graphics/SVG/1.1/DTD/svg11.dtd">
<svg version="1.1" id="Lager_1" xmlns="http://www.w3.org/2000/svg" xmlns:xlink="http://www.w3.org/1999/xlink" x="0px" y="0px"
	 width="300.473px" height="300.473px" viewBox="0 0 300.473 300.473" enable-background="new 0 0 300.473 300.473"
	 xml:space="preserve">
<circle fill="#FFFFFF" cx="150.236" cy="150.236" r="136.063"/>
<path fill="none" stroke="#000000" stroke-width="19.8425" stroke-miterlimit="10" d="M286.382,149.846
	c0,73.33-60.945,132.774-136.118,132.774c-75.173,0-136.115-59.444-136.115-132.774c0-73.323,60.942-132.761,136.115-132.761
	C225.437,17.085,286.382,76.523,286.382,149.846z"/>
<rect x="7.087" y="7.086" fill="#FFFFFF" width="286.299" height="286.299"/>
<rect x="7.087" y="7.086" fill="none" stroke="#000000" stroke-width="19.8425" stroke-miterlimit="10" width="286.299" height="286.299"/>
<g>
	<path d="M45.554,159.202h14.6c1.074,7.747,6.543,11.621,16.406,11.621c8.659,0,12.989-3.026,12.989-9.081
		c0-4.426-6.414-8.07-19.24-10.935c-0.26-0.067-0.764-0.186-1.51-0.356c-6.739-1.497-11.525-3.14-14.357-4.93
		c-5.209-3.319-7.813-8.754-7.813-16.305c0-7.712,2.832-13.408,8.496-17.085c4.72-3.059,11.133-4.589,19.238-4.589
		c7.91,0,14.225,1.791,18.946,5.371c5.24,3.939,7.99,9.733,8.252,17.383H87.352c-0.521-7.129-5.291-10.693-14.307-10.693
		c-8.073,0-12.109,2.914-12.109,8.74c0,3.776,4.085,6.625,12.256,8.545l5.176,1.221c3.678,0.879,6.559,1.628,8.643,2.246
		c3.189,0.977,5.939,2.1,8.252,3.369c5.859,3.255,8.789,8.626,8.789,16.113c0,8.105-2.898,14.209-8.691,18.311
		c-5.047,3.516-11.785,5.273-20.215,5.273c-8.562,0-15.381-1.872-20.459-5.615C49.021,173.672,45.977,167.471,45.554,159.202z"/>
	<path d="M108.494,203.099v-11.865h2.783c2.278,0,3.418-1.205,3.418-3.613v-59.277h14.209v61.572c0,5.24-1.726,8.87-5.176,10.889
		c-2.637,1.529-6.82,2.295-12.549,2.295H108.494z M114.695,122.435v-12.793h14.209v12.793H114.695z"/>
	<path d="M138.768,154.808c0-8.691,2.295-15.543,6.885-20.557c4.72-5.208,11.393-7.813,20.02-7.813
		c8.561,0,15.218,2.621,19.971,7.861c4.622,5.046,6.934,11.882,6.934,20.508c0,8.691-2.295,15.544-6.885,20.557
		c-4.753,5.241-11.426,7.861-20.02,7.861s-15.268-2.62-20.02-7.861C141.063,170.352,138.768,163.499,138.768,154.808z
		 M151.658,119.114v-12.012h11.035v12.012H151.658z M153.172,154.783c0,10.986,4.166,16.479,12.5,16.479
		c8.268,0,12.402-5.493,12.402-16.479c0-10.921-4.135-16.382-12.402-16.382C157.338,138.401,153.172,143.862,153.172,154.783z
		 M168.65,119.114v-12.012h11.035v12.012H168.65z"/>
	<path d="M220.359,181.419l-24.805-71.924h16.406l15.283,53.809l15.576-53.809h16.211l-24.512,71.924H220.359z"/>
</g>
</svg>
