<?xml version="1.0" encoding="utf-8"?>
<!-- Generator: Adobe Illustrator 16.0.0, SVG Export Plug-In . SVG Version: 6.00 Build 0)  -->
<!DOCTYPE svg PUBLIC "-//W3C//DTD SVG 1.1//EN" "http://www.w3.org/Graphics/SVG/1.1/DTD/svg11.dtd">
<svg version="1.1" id="Lager_1" xmlns="http://www.w3.org/2000/svg" xmlns:xlink="http://www.w3.org/1999/xlink" x="0px" y="0px"
	 width="300.473px" height="300.473px" viewBox="0 0 300.473 300.473" enable-background="new 0 0 300.473 300.473"
	 xml:space="preserve">
<circle fill="#FFFFFF" cx="150.236" cy="150.236" r="136.063"/>
<path fill="none" stroke="#000000" stroke-width="19.8425" stroke-miterlimit="10" d="M286.382,149.846
	c0,73.33-60.945,132.774-136.118,132.774c-75.173,0-136.115-59.444-136.115-132.774c0-73.323,60.942-132.761,136.115-132.761
	C225.437,17.085,286.382,76.523,286.382,149.846z"/>
<rect x="7.087" y="7.086" fill="#FFFFFF" width="286.299" height="286.299"/>
<rect x="7.087" y="7.086" fill="none" stroke="#000000" stroke-width="19.8425" stroke-miterlimit="10" width="286.299" height="286.299"/>
<polygon points="179.906,115.857 174.387,126.734 168.453,132.75 159.471,135.798 144.876,135.477 135.898,131.571 128.87,125.716 
	122.969,116.188 122.803,84.597 180.012,84.74 180.07,126.652 186.496,113.848 187.215,85.028 190.096,84.597 190.096,80.417 
	187.842,77.388 188.08,70.907 212.756,42.835 212.43,37.633 186.738,35.905 150.997,33.893 150.76,45.479 168,47.513 
	168.031,69.938 133.394,69.938 133.439,47.286 150.76,45.479 150.997,33.893 113.252,36.008 86.129,37.667 86.337,42.607 
	112.716,69.898 113.346,76.521 111.276,80.272 111.131,84.884 115.166,85.461 115.886,116.73 122.083,127.394 131.738,136.184 
	143.747,140.602 160.637,141.31 173.607,135.981 179.824,127.559 "/>
<polygon points="67.576,157.992 58.595,162.677 52.74,172.438 52.74,266.445 141.13,266.445 95.446,158.051 "/>
<polygon points="121.757,158.12 168.617,266.337 247.555,266.525 247.945,172.827 243.65,163.848 235.063,158.383 "/>
</svg>
