<?xml version="1.0" encoding="utf-8"?>
<!-- Generator: Adobe Illustrator 16.0.0, SVG Export Plug-In . SVG Version: 6.00 Build 0)  -->
<!DOCTYPE svg PUBLIC "-//W3C//DTD SVG 1.1//EN" "http://www.w3.org/Graphics/SVG/1.1/DTD/svg11.dtd">
<svg version="1.1" id="Lager_1" xmlns="http://www.w3.org/2000/svg" xmlns:xlink="http://www.w3.org/1999/xlink" x="0px" y="0px"
	 width="300.473px" height="300.473px" viewBox="0 0 300.473 300.473" enable-background="new 0 0 300.473 300.473"
	 xml:space="preserve">
<circle fill="#FFFFFF" cx="150.236" cy="150.236" r="136.063"/>
<path fill="none" stroke="#000000" stroke-width="19.8425" stroke-miterlimit="10" d="M286.382,149.846
	c0,73.33-60.945,132.774-136.118,132.774c-75.173,0-136.115-59.444-136.115-132.774c0-73.323,60.942-132.761,136.115-132.761
	C225.437,17.085,286.382,76.523,286.382,149.846z"/>
<rect x="7.087" y="7.086" fill="#FFFFFF" width="286.299" height="286.299"/>
<rect x="7.087" y="7.086" fill="none" stroke="#000000" stroke-width="19.8425" stroke-miterlimit="10" width="286.299" height="286.299"/>
<polygon points="135.777,98.613 128.133,101.665 127.318,93.66 119.992,96.509 119.585,88.232 111.579,91.488 111.308,82.804 
	103.709,86.468 103.438,77.649 95.568,81.72 95.161,72.899 87.563,76.428 87.698,67.336 79.421,71.543 79.15,62.18 71.552,66.387 
	71.28,57.432 63.41,60.96 62.596,51.868 55.269,57.159 51.334,49.019 45.771,56.21 38.986,49.425 37.358,58.382 27.907,55.742 
	31.116,65.03 43.145,69.42 45.508,68.002 48.029,67.687 53.071,68.791 124.411,114.083 116.837,126.388 45.823,78.717 
	42.987,74.777 42.199,72.255 43.145,69.42 31.116,65.03 22.433,68.422 29.624,74.256 24.468,81.312 33.287,81.854 30.846,90.945 
	39.801,89.453 39.394,98.137 47.67,94.609 47.398,103.564 55.676,100.036 55.676,108.721 63.546,104.65 63.682,114.014 
	71.822,109.127 71.958,118.897 79.421,114.963 79.828,123.781 87.834,120.119 87.427,129.345 95.975,125.14 95.975,134.773 
	104.116,130.431 103.709,139.521 107.779,142.1 113.886,146.171 109.408,154.041 111.34,156.626 202.854,214.269 217.892,214.375 
	223.619,209.286 228.175,190.734 236.378,171.644 239.411,175.595 238.318,180.745 241.287,186.634 241.285,201.189 
	243.707,202.591 252.968,198.602 255.961,196.322 261.017,206.222 262.922,215.561 261.897,225.046 256.673,234.826 
	223.646,211.081 218.486,215.837 204.521,215.837 258.465,250.263 264.001,249.731 273.112,231.354 274.683,220.516 
	274.995,212.976 272.797,203.081 270.167,193.683 276.665,188.166 277.526,185.36 270.469,179.965 251.014,169.115 249.986,168.86 
	249.216,169.544 246.702,166.613 241.814,161.034 241.814,150.676 235.439,136.438 226.515,125.602 213.765,116.676 180.758,95.796 
	184.015,91.176 199.103,91.602 203.14,95.426 203.801,110.331 213.765,116.676 213.702,93.765 210.465,86.909 205.577,83.036 
	199.992,81.132 182.527,81.188 177.428,82.889 174.24,85.651 171.745,90.146 164.764,85.576 156.178,85.863 150.652,89.264 
	142.577,103.076 "/>
</svg>
