<?xml version="1.0" encoding="utf-8"?>
<!-- Generator: Adobe Illustrator 16.0.0, SVG Export Plug-In . SVG Version: 6.00 Build 0)  -->
<!DOCTYPE svg PUBLIC "-//W3C//DTD SVG 1.1//EN" "http://www.w3.org/Graphics/SVG/1.1/DTD/svg11.dtd">
<svg version="1.1" id="Lager_1" xmlns="http://www.w3.org/2000/svg" xmlns:xlink="http://www.w3.org/1999/xlink" x="0px" y="0px"
	 width="300.473px" height="300.473px" viewBox="0 0 300.473 300.473" enable-background="new 0 0 300.473 300.473"
	 xml:space="preserve">
<circle fill="#FFFFFF" cx="150.236" cy="150.236" r="136.063"/>
<path fill="none" stroke="#000000" stroke-width="19.8425" stroke-miterlimit="10" d="M286.382,149.846
	c0,73.33-60.945,132.774-136.118,132.774c-75.173,0-136.115-59.444-136.115-132.774c0-73.323,60.942-132.761,136.115-132.761
	C225.437,17.085,286.382,76.523,286.382,149.846z"/>
<rect x="7.087" y="7.086" fill="#FFFFFF" width="286.299" height="286.299"/>
<rect x="7.087" y="7.086" fill="none" stroke="#000000" stroke-width="19.8425" stroke-miterlimit="10" width="286.299" height="286.299"/>
<polygon points="269.826,266.498 269.826,252.053 267.951,247.049 251.755,239.299 251.362,237.107 250.845,211.785 250.07,208.452 
	238.313,196.75 237.122,192.541 235.859,172.801 235.49,145.799 234.223,143.369 228.035,140.404 227.271,29.23 217.511,29.23 
	217.903,158.343 55.49,157.965 46.51,162.648 40.654,172.41 41.825,266.498 "/>
<polygon points="92.073,95.53 92.073,88.784 96.685,79.775 99.364,64.5 101.387,50.605 109.082,39.633 118.202,31.652 
	127.606,30.085 139.375,29.657 139.375,66.033 123.097,50.262 119.05,48.564 116.152,52.038 118.843,57.313 134.171,72.782 
	139.129,76.019 140.609,76.025 144.947,72.713 160.042,57.358 162.428,51.209 158.611,48.043 154.172,50.915 139.744,66.081 
	139.841,29.728 152.972,30.513 162.467,32.704 170.784,41.058 177.767,51.318 180.392,64.864 181.617,82.314 186.678,91.391 
	185.45,97.678 174.621,106.85 173.231,117.237 168.525,127.588 166.06,119.188 167.079,95.493 165.545,90.563 157.852,87.613 
	143.415,88.491 134.161,88.511 120.746,87.711 113.214,90.363 112.209,94.78 113.642,120.288 116.784,127.122 123.813,132.979 
	132.791,136.883 147.467,136.883 156.333,134.2 162.375,127.71 165.797,119.575 168.318,127.903 160.12,137.663 148.537,142.313 
	132.559,142.024 119.928,136.749 110.147,127.512 105.438,118.398 104.339,106.575 "/>
</svg>
