<?xml version="1.0" encoding="utf-8"?>
<!-- Generator: Adobe Illustrator 16.0.0, SVG Export Plug-In . SVG Version: 6.00 Build 0)  -->
<!DOCTYPE svg PUBLIC "-//W3C//DTD SVG 1.1//EN" "http://www.w3.org/Graphics/SVG/1.1/DTD/svg11.dtd">
<svg version="1.1" id="Lager_1" xmlns="http://www.w3.org/2000/svg" xmlns:xlink="http://www.w3.org/1999/xlink" x="0px" y="0px"
	 width="300.473px" height="300.473px" viewBox="0 0 300.473 300.473" enable-background="new 0 0 300.473 300.473"
	 xml:space="preserve">
<circle fill="#FFFFFF" cx="150.236" cy="150.236" r="136.063"/>
<path fill="none" stroke="#000000" stroke-width="19.8425" stroke-miterlimit="10" d="M286.382,149.846
	c0,73.33-60.945,132.774-136.118,132.774c-75.173,0-136.115-59.444-136.115-132.774c0-73.323,60.942-132.761,136.115-132.761
	C225.437,17.085,286.382,76.523,286.382,149.846z"/>
<rect x="7.087" y="7.086" fill="#FFFFFF" width="286.299" height="286.299"/>
<rect x="7.087" y="7.086" fill="none" stroke="#000000" stroke-width="19.8425" stroke-miterlimit="10" width="286.299" height="286.299"/>
<polygon points="247.555,275.41 247.945,181.713 243.65,172.732 235.063,167.268 67.576,166.877 58.595,171.561 52.74,181.32 
	53.911,275.41 "/>
<polygon points="172.205,146.575 160.637,151.627 143.747,150.919 132.013,145.661 122.233,136.423 104.167,136.879 87.095,134.863 
	80.85,130.958 77.726,125.883 78.2,109.866 81.629,100.116 87.486,93.479 112.472,77.472 120.671,51.315 133.554,32.575 
	141.911,27.224 150.221,24.898 150.442,33.407 139.801,38.821 140.838,83.492 145.523,87.656 158.15,87.623 160.967,83.838 
	159.926,38.55 150.715,33.379 150.656,24.969 158.484,26.897 165.65,31.611 178.145,51.043 187.34,79.153 212.418,93.087 
	219.055,100.505 221.871,111.427 222.178,125.493 219.963,132.422 214.76,135.643 199.584,137.703 180.611,136.5 178.945,90.538 
	167.467,95.578 157.148,100.323 146.028,100.314 133.623,95.528 122.304,91.042 122.624,126.664 128.87,136.034 135.898,141.89 
	144.876,145.794 160.883,145.794 168.932,142.929 174.939,136.815 180.158,128.061 180.404,136.815 "/>
</svg>
