<?xml version="1.0" encoding="utf-8"?>
<!-- Generator: Adobe Illustrator 16.0.0, SVG Export Plug-In . SVG Version: 6.00 Build 0)  -->
<!DOCTYPE svg PUBLIC "-//W3C//DTD SVG 1.1//EN" "http://www.w3.org/Graphics/SVG/1.1/DTD/svg11.dtd">
<svg version="1.1" id="Lager_2" xmlns="http://www.w3.org/2000/svg" xmlns:xlink="http://www.w3.org/1999/xlink" x="0px" y="0px"
	 width="300.473px" height="300.473px" viewBox="-155.5 546.5 300.473 300.473"
	 enable-background="new -155.5 546.5 300.473 300.473" xml:space="preserve">
<polygon fill="#FAEB48" points="136.469,574.984 -5.383,818.626 -146.996,574.847 "/>
<polygon fill="none" stroke="#000000" stroke-width="14.1732" stroke-linejoin="round" stroke-miterlimit="10" points="
	136.469,574.984 -5.383,818.626 -146.996,574.847 "/>
<polygon points="-50.218,724.235 -50.218,715.566 -31.709,715.566 -31.709,592.691 -30.64,590.836 -28.832,589.607 -8.775,589.607 
	-8.754,595.672 -23.34,595.672 -25.175,597.886 -25.227,625.636 -23.89,627.133 10.91,627.145 12.469,625.535 12.646,597.834 
	10.86,595.684 -8.754,595.672 -8.775,589.607 16.441,589.607 18.223,590.842 19.091,592.625 19.25,602.554 31.579,613.033 
	33.017,615.088 33.839,617.554 33.839,620.02 21.656,611.883 19.778,610.059 19.456,641.8 23.907,641.779 25.441,642.619 
	26.43,643.436 27.058,644.677 27.408,646.889 27.889,695.383 28.077,697.756 28.698,700.268 29.318,701.756 30.384,703.002 
	31.675,703.493 32.979,703.613 34.249,703.493 35.417,702.807 36.482,701.881 37.315,700.691 38.126,698.717 38.468,696.855 
	38.654,694.686 38.51,692.646 37.895,688.449 36.264,679.992 34.814,674.254 33.908,669.119 32.942,663.26 29.21,624.076 
	21.716,624.129 21.656,611.883 33.839,620.02 37.654,660.602 38.819,668.133 40.765,676.074 42.15,682.349 43.199,689.144 
	43.682,693.061 43.709,695.305 43.553,697.631 43.057,699.771 42.323,701.979 41.755,703.524 41.103,704.857 39.956,706.285 
	38.625,707.527 36.761,708.611 34.941,709.271 32.636,709.448 30.272,709.09 28.046,707.959 26.098,706.536 24.914,704.982 
	24.054,703.156 23.177,700.051 22.749,697.412 21.978,648.629 19.382,648.555 19.456,715.773 37.727,715.566 37.727,724.235 "/>
</svg>
