<?xml version="1.0" encoding="utf-8"?>
<!-- Generator: Adobe Illustrator 16.0.0, SVG Export Plug-In . SVG Version: 6.00 Build 0)  -->
<!DOCTYPE svg PUBLIC "-//W3C//DTD SVG 1.1//EN" "http://www.w3.org/Graphics/SVG/1.1/DTD/svg11.dtd">
<svg version="1.1" id="Lager_1" xmlns="http://www.w3.org/2000/svg" xmlns:xlink="http://www.w3.org/1999/xlink" x="0px" y="0px"
	 width="300.473px" height="300.473px" viewBox="0 0 300.473 300.473" enable-background="new 0 0 300.473 300.473"
	 xml:space="preserve">
<rect y="14.173" fill="#FFFFFF" width="300.473" height="198.425"/>
<rect x="9.921" y="14.173" fill="none" stroke="#000000" stroke-width="19.8425" stroke-miterlimit="10" width="280.629" height="198.426"/>
<path d="M135.052,78.949l1.722-0.974l0.375-14.232L61.103,82.011l-4.248-10.197l159.313-39.935l4.249,10.621l-73.922,19.543
	l0.479,13.495l6.317,22.191l74.177,2.146c0,0-7.616-5.076-8.014-13.798c0.059-6.17,4.116-16.899,16.351-17.205
	c14.338,0.119,17.638,12.135,17.448,17.388c-0.174,4.814-3.195,10.822-7.172,13.445c-5.347,3.527-14.195,3.121-14.195,3.121
	l-3.823,8.071l-76.896,23.791l0.017,41.552l-8.876-0.021l-0.062-14.342l-31.074,0.109l0.044,14.113l61.05,0.137l4.461,0.557
	l3.206,1.813l1.235,2.924l0.297,3.488l-1.395,2.928l-3.275,1.891l-101.54,0.199l-3.219-1.342l-2.129-2.129l-0.604-2.771l0.281-2.893
	l2.01-2.893l4.055-1.514l26.228-0.117l0.009-14.5l-19.104-0.135l-12.685-11.012l5.45-7.12l53.528-1.274l2.072-35.79l-7.666-7.666
	l-11.151-4.739l-8.761-0.895l-7.851,1.087l-6.432,2.505l-6.088,3.993l-5.438,5.529l-3.592,6.014l-2.088,5.763l-0.919,6.348
	l0.167,6.599l1.277,6.546l2.94,5.981l-5.45,7.12l-4.6-7.945l-2.437-8.862l-0.418-6.933l0.346-6.924l1.074-5.354l1.435-4.683
	l4.182-7.248l4.168-5.479l4.749-3.723l4.465-3.064l4.306-2.281l5.59-2.318l10.446-1.023l11.526,1.671l9.688,4.259l8.063,5.826
	L135.052,78.949z"/>
</svg>
