<?xml version="1.0" encoding="utf-8"?>
<!-- Generator: Adobe Illustrator 16.0.0, SVG Export Plug-In . SVG Version: 6.00 Build 0)  -->
<!DOCTYPE svg PUBLIC "-//W3C//DTD SVG 1.1//EN" "http://www.w3.org/Graphics/SVG/1.1/DTD/svg11.dtd">
<svg version="1.1" id="Lager_1" xmlns="http://www.w3.org/2000/svg" xmlns:xlink="http://www.w3.org/1999/xlink" x="0px" y="0px"
	 width="300.473px" height="300.473px" viewBox="0 0 300.473 300.473" enable-background="new 0 0 300.473 300.473"
	 xml:space="preserve">
<circle fill="#FFFFFF" cx="150.236" cy="150.236" r="136.063"/>
<path fill="none" stroke="#000000" stroke-width="19.8425" stroke-miterlimit="10" d="M286.382,149.846
	c0,73.33-60.945,132.774-136.118,132.774c-75.173,0-136.115-59.444-136.115-132.774c0-73.323,60.942-132.761,136.115-132.761
	C225.437,17.085,286.382,76.523,286.382,149.846z"/>
<rect fill="#FFFFFF" width="300.473" height="300.473"/>
<rect x="9.921" y="14.173" fill="none" stroke="#000000" stroke-width="19.8425" stroke-miterlimit="10" width="280.629" height="198.425"/>
<circle fill="none" stroke="#000000" stroke-width="19.8425" stroke-miterlimit="10" cx="56.693" cy="260.787" r="28.347"/>
<circle fill="none" stroke="#000000" stroke-width="19.8425" stroke-miterlimit="10" cx="243.78" cy="260.787" r="28.346"/>
<polygon points="213.5,196.891 213.76,134.425 210.898,128.438 205.172,124.795 93.514,124.534 87.528,127.658 83.624,134.164 
	84.405,196.891 "/>
<polygon points="163.268,111 155.556,114.369 144.295,113.896 136.473,110.39 129.953,104.232 117.908,104.536 106.528,103.192 
	102.364,100.589 100.282,97.206 100.597,86.527 102.884,80.027 106.788,75.603 123.446,64.931 128.912,47.493 137.5,35 
	143.071,31.433 148.612,29.882 148.758,35.555 141.665,39.164 142.356,68.944 145.479,71.721 153.898,71.699 155.775,69.176 
	155.08,38.984 148.941,35.537 148.901,29.93 154.119,31.214 158.898,34.357 167.228,47.313 173.357,66.052 190.076,75.342 
	194.5,80.287 196.377,87.568 196.582,96.945 195.105,101.565 191.638,103.712 181.52,105.085 168.871,104.283 167.76,73.642 
	160.107,77.001 153.229,80.165 145.816,80.16 137.546,76.969 130,73.979 130.213,97.726 134.377,103.973 139.063,107.876 
	145.048,110.479 155.72,110.479 161.086,108.57 165.09,104.493 168.568,98.657 168.734,104.493 "/>
</svg>
