<?xml version="1.0" encoding="utf-8"?>
<!-- Generator: Adobe Illustrator 16.0.0, SVG Export Plug-In . SVG Version: 6.00 Build 0)  -->
<!DOCTYPE svg PUBLIC "-//W3C//DTD SVG 1.1//EN" "http://www.w3.org/Graphics/SVG/1.1/DTD/svg11.dtd">
<svg version="1.1" id="Lager_1" xmlns="http://www.w3.org/2000/svg" xmlns:xlink="http://www.w3.org/1999/xlink" x="0px" y="0px"
	 width="300.473px" height="300.473px" viewBox="0 0 300.473 300.473" enable-background="new 0 0 300.473 300.473"
	 xml:space="preserve">
<circle fill="#FFFFFF" cx="150.236" cy="150.236" r="136.063"/>
<path fill="none" stroke="#000000" stroke-width="19.8425" stroke-miterlimit="10" d="M286.382,149.846
	c0,73.33-60.945,132.774-136.118,132.774c-75.173,0-136.115-59.444-136.115-132.774c0-73.323,60.942-132.761,136.115-132.761
	C225.437,17.085,286.382,76.523,286.382,149.846z"/>
<rect fill="#FFFFFF" width="300.473" height="300.473"/>
<rect x="9.921" y="14.173" fill="none" stroke="#000000" stroke-width="19.8425" stroke-miterlimit="10" width="280.629" height="198.425"/>
<path fill="none" stroke="#000000" stroke-width="19.8425" stroke-miterlimit="10" d="M277.795,277.795
	c0,0-4.787,11.339-10.692,11.339H33.37c-5.905,0-10.693-11.339-10.693-11.339v-11.338c0,0,4.788-11.34,10.693-11.34h233.733
	c5.905,0,10.692,11.34,10.692,11.34V277.795z"/>
<path d="M221.87,160.744l4.381,3.02l2.583,3.891l1.161,4.088v9.107l-1.161,4.096l-1.991,3.412l-2.488,2.73l-2.156,1.82h-96.55
	l-3.318-1.594l-2.323-2.957l-1.991-3.186l-1.161-4.094v-10.012l1.161-3.867l2.323-3.186l2.156-2.502l2.655-1.365l30.559,0.008
	l-0.034-4.33l-19.465-0.039l-0.085-51.47l-17.61-48.824l-3.981-3.868l-4.147-3.185l-5.143-1.366l-25.828-0.851l7.068,96.777
	l10.784,35.263l4.313-0.227l-0.498,2.502l-23.942,7.141l-3.65-1.592l-2.986-2.959l-2.322-6.369l-1.327-7.508l-0.305-15.785
	l10.526-8.025l-1.356-9.317l0.797-4.385L64.463,46.533l1.796-8.484l5.781-4.186l45.148,1.379l4.313,1.137l4.646,2.503l4.645,4.55
	l25.446,38.445l17.905,0.15l5.309,32.393l44.738,7.049l-0.192,34.931l-28.77,0.293v4.047L221.87,160.744z M155.263,88.753
	l-3.655,1.003l-2.569,2.819l-1.728,2.692l-1.184,3.129l-0.254,4.567l0.423,29.434l26.074-10.533l-4.527-33.133L155.263,88.753z"/>
</svg>
