<?xml version="1.0" encoding="utf-8"?>
<!-- Generator: Adobe Illustrator 16.0.0, SVG Export Plug-In . SVG Version: 6.00 Build 0)  -->
<!DOCTYPE svg PUBLIC "-//W3C//DTD SVG 1.1//EN" "http://www.w3.org/Graphics/SVG/1.1/DTD/svg11.dtd">
<svg version="1.1" id="Lager_1" xmlns="http://www.w3.org/2000/svg" xmlns:xlink="http://www.w3.org/1999/xlink" x="0px" y="0px"
	 width="300.473px" height="300.473px" viewBox="0 0 300.473 300.473" enable-background="new 0 0 300.473 300.473"
	 xml:space="preserve">
<circle fill="#FFFFFF" cx="150.236" cy="150.236" r="136.063"/>
<path fill="none" stroke="#000000" stroke-width="19.8425" stroke-miterlimit="10" d="M286.382,149.846
	c0,73.33-60.945,132.774-136.118,132.774c-75.173,0-136.115-59.444-136.115-132.774c0-73.323,60.942-132.761,136.115-132.761
	C225.437,17.085,286.382,76.523,286.382,149.846z"/>
<rect fill="#FFFFFF" width="300.473" height="300.473"/>
<rect x="9.921" y="14.173" fill="none" stroke="#000000" stroke-width="19.8425" stroke-miterlimit="10" width="280.629" height="198.425"/>
<path fill="none" stroke="#000000" stroke-width="19.8425" stroke-miterlimit="10" d="M277.795,277.795
	c0,0-4.787,11.339-10.692,11.339H33.37c-5.905,0-10.693-11.339-10.693-11.339v-11.338c0,0,4.788-11.34,10.693-11.34h233.733
	c5.905,0,10.692,11.34,10.692,11.34V277.795z"/>
<path d="M258.169,153.584l-3.098-4.248L252.196,146l-3.541-1.821l-40.743,0.013l0.046-5.775l21.967-0.05l-0.087-94.053l-47.302-0.04
	l-7.66,48.31l-32.104,0.013V65.473h-14.086v27.126l-34.76,0.01l0.131,23.799L62.223,133.81l-2.253-26.202
	c-4.522,0.032-5.797-1.475-10.487-1.47l-1.738,68.711l-4.784,7.709l-8.165,2.242l1.488,3.061h21.793l4.304-3.674l2.853-4.826
	l0.841-9l-0.132-1.623l20.241,3.045l1.548,5.461l2.655,4.549l3.317,3.643l2.875,2.426h151.414l4.424-2.123l3.097-3.945l2.655-4.246
	l1.548-5.459V158.74L258.169,153.584z M132.563,145.34l-35.523,0.006l-5.841,4.023l-3.444,5.189l-23.775-0.213l-0.556-6.458
	l30.734-16.802l0.047,8.469l38.358,0.39V145.34z M191.592,50.289l21.909-0.045l3.305,3.839l2.305,3.59l1.578,4.172l0.34,6.089
	l-0.438,25.18l-34.893,0.021L191.592,50.289z"/>
</svg>
