<?xml version="1.0" encoding="utf-8"?>
<!-- Generator: Adobe Illustrator 16.0.0, SVG Export Plug-In . SVG Version: 6.00 Build 0)  -->
<!DOCTYPE svg PUBLIC "-//W3C//DTD SVG 1.1//EN" "http://www.w3.org/Graphics/SVG/1.1/DTD/svg11.dtd">
<svg version="1.1" id="Lager_1" xmlns="http://www.w3.org/2000/svg" xmlns:xlink="http://www.w3.org/1999/xlink" x="0px" y="0px"
	 width="300.473px" height="300.473px" viewBox="0 0 300.473 300.473" enable-background="new 0 0 300.473 300.473"
	 xml:space="preserve">
<circle fill="#FFFFFF" cx="150.236" cy="150.236" r="136.063"/>
<path fill="none" stroke="#000000" stroke-width="19.8425" stroke-miterlimit="10" d="M286.382,149.846
	c0,73.33-60.945,132.774-136.118,132.774c-75.173,0-136.115-59.444-136.115-132.774c0-73.323,60.942-132.761,136.115-132.761
	C225.437,17.085,286.382,76.523,286.382,149.846z"/>
<rect fill="#FFFFFF" width="300.473" height="300.473"/>
<rect x="9.921" y="14.173" fill="none" stroke="#000000" stroke-width="19.8425" stroke-miterlimit="10" width="280.629" height="198.425"/>
<circle fill="none" stroke="#000000" stroke-width="19.8425" stroke-miterlimit="10" cx="56.693" cy="260.787" r="28.347"/>
<circle fill="none" stroke="#000000" stroke-width="19.8425" stroke-miterlimit="10" cx="243.78" cy="260.787" r="28.346"/>
<polygon points="182.985,103.299 167.98,103.106 160.152,174.943 113.152,175.056 101.609,103.106 86.797,102.914 100.937,187.1 
	170.348,187.1 "/>
<polygon points="177.983,62.131 177.983,53.089 169.584,52.583 164.399,50.64 161.055,47.509 160.862,40.969 163.104,38.144 
	165.672,36.159 199.201,36.108 202.071,37.958 203.955,40.969 204.146,47.509 201.887,50.361 196.786,52.608 187.218,52.896 
	187.263,62.302 213.734,62.395 213.734,83.869 196.645,83.869 194.336,88.486 189.526,88.486 189.526,91.179 172.982,90.987 
	172.982,88.679 168.365,88.486 165.672,83.869 151.244,83.869 148.691,85.658 146.626,88.486 144.745,92.317 143.548,96.566 
	141.662,108.843 122.578,107.724 124.521,94.044 127.389,86.178 129.504,82.137 132.582,77.136 137.007,72.134 140.552,68.764 
	144.252,65.927 148.198,63.707 153.744,62.131 "/>
</svg>
