<?xml version="1.0" encoding="utf-8"?>
<!-- Generator: Adobe Illustrator 16.0.0, SVG Export Plug-In . SVG Version: 6.00 Build 0)  -->
<!DOCTYPE svg PUBLIC "-//W3C//DTD SVG 1.1//EN" "http://www.w3.org/Graphics/SVG/1.1/DTD/svg11.dtd">
<svg version="1.1" id="Lager_1" xmlns="http://www.w3.org/2000/svg" xmlns:xlink="http://www.w3.org/1999/xlink" x="0px" y="0px"
	 width="300.472px" height="300.473px" viewBox="-155.5 546.5 300.472 300.473"
	 enable-background="new -155.5 546.5 300.472 300.473" xml:space="preserve">
<rect x="-106.731" y="595.76" transform="matrix(-0.7071 0.7071 -0.7071 -0.7071 483.6814 1193.1243)" fill="#FFFFFF" stroke="#FF0000" stroke-width="8.5039" stroke-miterlimit="10" width="202.936" height="201.951"/>
<polygon fill="#FF0000" points="25.105,689.444 11.349,689.268 4.174,755.117 -38.91,755.222 -49.49,689.268 -63.069,689.092 
	-50.107,766.262 13.52,766.262 "/>
<polyline fill="#FF0000" points="20.519,651.707 20.519,643.418 12.819,642.955 8.068,641.173 5.001,638.304 4.824,632.309 
	6.88,629.719 9.233,627.9 39.97,627.853 42.6,629.549 44.326,632.309 44.503,638.304 42.43,640.919 37.755,642.978 28.984,643.242 
	29.025,651.863 53.29,651.948 53.29,671.634 37.625,671.634 35.509,675.866 31.1,675.866 31.1,678.335 15.935,678.158 
	15.935,676.042 11.702,675.866 9.233,671.634 -3.993,671.634 -6.332,673.274 -8.225,675.866 -9.949,679.378 -11.047,683.272 
	-12.776,694.526 -30.269,693.5 -28.489,680.961 -25.86,673.75 -23.921,670.046 -21.098,665.461 -17.043,660.876 -13.793,657.787 
	-10.402,655.187 -6.784,653.151 -1.701,651.707 "/>
</svg>
