<?xml version="1.0" encoding="utf-8"?>
<!-- Generator: Adobe Illustrator 16.0.0, SVG Export Plug-In . SVG Version: 6.00 Build 0)  -->
<!DOCTYPE svg PUBLIC "-//W3C//DTD SVG 1.1//EN" "http://www.w3.org/Graphics/SVG/1.1/DTD/svg11.dtd">
<svg version="1.1" id="Lager_1" xmlns="http://www.w3.org/2000/svg" xmlns:xlink="http://www.w3.org/1999/xlink" x="0px" y="0px"
	 width="300.473px" height="300.473px" viewBox="-155.5 546.5 300.473 300.473"
	 enable-background="new -155.5 546.5 300.473 300.473" xml:space="preserve">
<rect x="-106.731" y="595.759" transform="matrix(-0.7071 0.7071 -0.7071 -0.7071 483.679 1193.1243)" fill="#FFFFFF" stroke="#E2001A" stroke-width="8.5039" stroke-miterlimit="10" width="202.935" height="201.952"/>
<g>
	<polyline fill="#E2001A" points="32.838,672.347 32.353,681.374 39.446,688.438 47.852,691.426 61.773,691.831 67.521,689.396 
		70.574,685.158 71.222,676.438 62.453,677.997 47.354,677.218 	"/>
	<g>
		<polyline fill="#E2001A" points="-72.74,647.314 -37.924,637.854 -7.27,635.204 27.926,637.854 62.568,647.018 68.041,658.667 
			70.689,671.178 64.712,672.347 48.74,671.913 32.846,666.615 30.196,657.911 14.68,652.802 -5.53,650.721 -24.3,652.802 
			-39.437,657.153 -43.6,665.858 -54.317,672.347 -68.578,673.428 -81.749,671.534 		"/>
		<polyline fill="#E2001A" points="-81.749,676.832 -79.931,687.809 -74.254,691.971 -65.929,693.484 -53.062,691.971 
			-47.385,686.293 -44.357,680.617 -44.357,673.428 -54.197,678.726 -70.848,679.104 		"/>
		<polyline fill="#E2001A" points="-18.09,676.852 7.688,676.852 7.688,665.493 24.533,665.493 24.533,680.936 52.863,727.769 
			53.629,758.269 -64.158,758.269 -63.054,729.3 -34.935,680.808 -35.062,665.493 -18.09,665.493 		"/>
	</g>
</g>
</svg>
