<?xml version="1.0" encoding="utf-8"?>
<!-- Generator: Adobe Illustrator 16.0.0, SVG Export Plug-In . SVG Version: 6.00 Build 0)  -->
<!DOCTYPE svg PUBLIC "-//W3C//DTD SVG 1.1//EN" "http://www.w3.org/Graphics/SVG/1.1/DTD/svg11.dtd">
<svg version="1.1" id="Lager_1" xmlns="http://www.w3.org/2000/svg" xmlns:xlink="http://www.w3.org/1999/xlink" x="0px" y="0px"
	 width="300.472px" height="300.473px" viewBox="-155.5 546.5 300.472 300.473"
	 enable-background="new -155.5 546.5 300.472 300.473" xml:space="preserve">
<rect x="-106.731" y="595.76" transform="matrix(-0.7071 0.7071 -0.7071 -0.7071 483.6814 1193.1243)" fill="#FFFFFF" stroke="#E2001A" stroke-width="8.5039" stroke-miterlimit="10" width="202.936" height="201.951"/>
<polyline fill="#E2001A" points="27.559,634.858 67.256,657.268 50.033,756.864 4.708,763.141 2.909,773.156 58.307,766.837 
	78.736,650.291 29.361,623.289 -30.388,612.563 -32.224,622.873 -56.208,618.68 -61.005,619.984 -63.488,621.878 -65.928,625.034 
	-69.043,642.328 -67.552,646.994 -65.28,649.904 -62.905,652.168 -22.654,636.646 -19.441,632.282 -14.41,628.579 -5.991,628.053 
	2.953,631.823 6.751,639.66 6.751,647.023 2.909,653.746 -3.814,658.868 -11.817,658.868 -18.532,656.026 -22.566,650.502 
	-24.056,644.188 -22.654,636.646 -62.905,652.168 -38.175,656.553 -49.619,719.957 -73.608,715.825 -77.969,717.202 
	-80.839,719.498 -82.905,722.482 -41.01,737.174 -40.207,735.452 -38.256,732.468 -34.353,728.565 -28.733,726.291 -21.269,727.303 
	-14.497,730.976 -11.053,736.026 -9.561,742.568 -12.778,751.066 -19.202,756.687 -27.696,757.834 -33.206,755.768 -38.715,751.063 
	-40.949,745.625 -41.814,741.306 -41.01,737.174 -82.905,722.482 -86.004,739.24 -84.741,743.257 -82.905,746.012 -80.38,748.192 
	-55.243,752.669 -57.08,762.885 2.909,773.156 "/>
</svg>
