<?xml version="1.0" encoding="utf-8"?>
<!-- Generator: Adobe Illustrator 16.0.0, SVG Export Plug-In . SVG Version: 6.00 Build 0)  -->
<!DOCTYPE svg PUBLIC "-//W3C//DTD SVG 1.1//EN" "http://www.w3.org/Graphics/SVG/1.1/DTD/svg11.dtd">
<svg version="1.1" id="Lager_1" xmlns="http://www.w3.org/2000/svg" xmlns:xlink="http://www.w3.org/1999/xlink" x="0px" y="0px"
	 width="300.472px" height="300.473px" viewBox="-155.5 546.5 300.472 300.473"
	 enable-background="new -155.5 546.5 300.472 300.473" xml:space="preserve">
<rect x="-106.731" y="595.759" transform="matrix(-0.7071 0.7071 -0.7071 -0.7071 483.6807 1193.1226)" fill="#FFFFFF" stroke="#E3051B" stroke-width="8.5039" stroke-miterlimit="10" width="202.936" height="201.951"/>
<path fill="none" stroke="#E2071C" stroke-miterlimit="10" d="M-71.559,732.393"/>
<path fill="#E2071B" d="M-2.993,589.002v4.521l54.374,146.299h17.671v8.22L59.6,750.92l-4.932,4.521l-2.056,8.217H-60.813
	l-30.41-33.285l16.438-45.207l18.082-36.576l18.082-26.299l15.206-15.617l16.173-13.15l1.909-16.029h4.109 M-12.863,612.016
	l-5.62,26.302v50.138l3.287,25.889l4.11,16.85l3.844,2.878V599.275L-12.863,612.016z M-45.607,732.426l32.744,1.646l-10.963-4.111
	l-18.905-8.63H-64.1l-16.85,2.876l-6.575,5.754L-45.607,732.426z M-4.921,736.124l50.138,3.698v-3.698L8.64,731.193H-4.921V736.124z
	"/>
</svg>
