<?xml version="1.0" encoding="utf-8"?>
<!-- Generator: Adobe Illustrator 16.0.0, SVG Export Plug-In . SVG Version: 6.00 Build 0)  -->
<!DOCTYPE svg PUBLIC "-//W3C//DTD SVG 1.1//EN" "http://www.w3.org/Graphics/SVG/1.1/DTD/svg11.dtd">
<svg version="1.1" id="Lager_1" xmlns="http://www.w3.org/2000/svg" xmlns:xlink="http://www.w3.org/1999/xlink" x="0px" y="0px"
	 width="300.472px" height="300.473px" viewBox="-155.5 546.5 300.472 300.473"
	 enable-background="new -155.5 546.5 300.472 300.473" xml:space="preserve">
<rect x="-106.731" y="595.759" transform="matrix(-0.7071 0.7071 -0.7071 -0.7071 483.6807 1193.1226)" fill="#FFFFFF" stroke="#E2001A" stroke-width="8.5039" stroke-miterlimit="10" width="202.936" height="201.951"/>
<polygon fill="#E2071C" points="-109.825,676.555 -87.994,673.73 -66.285,665.594 -68.093,678.046 -50.503,671.563 -22.724,656.709 
	-26.561,678.466 -14.727,672.662 15.269,650.984 8.304,677.366 23.17,669.414 61.718,638.812 57.514,664.445 48.11,682.387 
	37.093,697.628 87.888,697.956 84.229,718.709 35.952,708.471 41.967,733.346 42.341,753.084 39.35,778.785 13.271,739.37 
	0.927,725.764 -0.275,756.613 -22.1,721.385 -31.677,709.661 -33.889,733.682 -55.75,705.156 -70.394,691.1 -73.308,705.426 
	-90.355,687.794 "/>
</svg>
