<?xml version="1.0" encoding="utf-8"?>
<!-- Generator: Adobe Illustrator 16.0.0, SVG Export Plug-In . SVG Version: 6.00 Build 0)  -->
<!DOCTYPE svg PUBLIC "-//W3C//DTD SVG 1.1//EN" "http://www.w3.org/Graphics/SVG/1.1/DTD/svg11.dtd">
<svg version="1.1" id="Lager_1" xmlns="http://www.w3.org/2000/svg" xmlns:xlink="http://www.w3.org/1999/xlink" x="0px" y="0px"
	 width="300.473px" height="300.473px" viewBox="0 0 300.473 300.473" enable-background="new 0 0 300.473 300.473"
	 xml:space="preserve">
<circle fill="#FFFFFF" cx="150.236" cy="150.236" r="136.063"/>
<path fill="none" stroke="#000000" stroke-width="19.8425" stroke-miterlimit="10" d="M286.382,149.846
	c0,73.33-60.945,132.774-136.118,132.774c-75.173,0-136.115-59.444-136.115-132.774c0-73.323,60.942-132.761,136.115-132.761
	C225.437,17.085,286.382,76.523,286.382,149.846z"/>
<polygon points="231.353,241.534 231.678,163.452 228.1,155.969 220.942,151.415 81.37,151.089 73.887,154.993 69.007,163.126 
	69.983,241.534 "/>
<polygon points="168.562,134.171 158.922,138.382 144.846,137.792 135.068,133.409 126.918,125.712 111.862,126.091 97.637,124.411 
	92.432,121.158 89.829,116.928 90.224,103.581 93.082,95.456 97.962,89.924 118.784,76.585 125.617,54.788 136.353,39.171 
	143.316,34.712 150.242,32.773 150.425,39.865 141.558,44.376 142.423,81.602 146.327,85.072 156.85,85.044 159.196,81.891 
	158.328,44.151 150.653,39.842 150.604,32.833 157.127,34.439 163.1,38.368 173.512,54.562 181.174,77.986 202.072,89.599 
	207.603,95.78 209.949,104.881 210.205,116.603 208.359,122.377 204.024,125.062 191.377,126.778 175.566,125.775 174.178,87.473 
	164.612,91.673 156.014,95.627 146.747,95.621 136.41,91.632 126.977,87.895 127.243,117.578 132.449,125.387 138.305,130.267 
	145.788,133.521 159.127,133.521 165.834,131.133 170.84,126.038 175.188,118.743 175.395,126.038 "/>
</svg>
