<?xml version="1.0" encoding="utf-8"?>
<!-- Generator: Adobe Illustrator 16.0.0, SVG Export Plug-In . SVG Version: 6.00 Build 0)  -->
<!DOCTYPE svg PUBLIC "-//W3C//DTD SVG 1.1//EN" "http://www.w3.org/Graphics/SVG/1.1/DTD/svg11.dtd">
<svg version="1.1" id="Lager_1" xmlns="http://www.w3.org/2000/svg" xmlns:xlink="http://www.w3.org/1999/xlink" x="0px" y="0px"
	 width="300.473px" height="300.473px" viewBox="0 0 300.473 300.473" enable-background="new 0 0 300.473 300.473"
	 xml:space="preserve">
<circle fill="#FFFFFF" cx="150.236" cy="150.236" r="136.063"/>
<path fill="none" stroke="#000000" stroke-width="19.8425" stroke-miterlimit="10" d="M286.382,149.846
	c0,73.33-60.945,132.774-136.118,132.774c-75.173,0-136.115-59.444-136.115-132.774c0-73.323,60.942-132.761,136.115-132.761
	C225.437,17.085,286.382,76.523,286.382,149.846z"/>
<polygon points="174.979,113.583 170.379,122.647 165.435,127.66 157.949,130.2 145.788,129.932 138.305,126.678 132.449,121.798 
	127.531,113.857 127.394,87.532 175.066,87.652 175.116,122.578 180.471,111.908 181.07,87.892 183.471,87.532 183.471,84.049 
	181.592,81.525 181.791,76.124 202.354,52.731 202.082,48.396 180.672,46.956 150.888,45.278 150.69,54.935 165.057,56.628 
	165.084,75.316 136.219,75.316 136.256,56.44 150.69,54.935 150.888,45.278 119.434,47.041 96.832,48.424 97.005,52.541 
	118.987,75.283 119.513,80.802 117.787,83.929 117.667,87.771 121.029,88.252 121.629,114.31 126.793,123.196 134.839,130.521 
	144.846,134.203 158.922,134.793 169.73,130.353 174.91,123.333 "/>
<polygon points="81.37,148.695 73.887,152.599 69.007,160.732 69.007,239.072 142.666,239.072 104.595,148.744 "/>
<polygon points="126.521,148.802 165.572,238.982 231.353,239.14 231.678,161.058 228.1,153.574 220.942,149.021 "/>
</svg>
