<?xml version="1.0" encoding="utf-8"?>
<!-- Generator: Adobe Illustrator 16.0.0, SVG Export Plug-In . SVG Version: 6.00 Build 0)  -->
<!DOCTYPE svg PUBLIC "-//W3C//DTD SVG 1.1//EN" "http://www.w3.org/Graphics/SVG/1.1/DTD/svg11.dtd">
<svg version="1.1" id="Lager_1" xmlns="http://www.w3.org/2000/svg" xmlns:xlink="http://www.w3.org/1999/xlink" x="0px" y="0px"
	 width="300.473px" height="300.473px" viewBox="0 0 300.473 300.473" enable-background="new 0 0 300.473 300.473"
	 xml:space="preserve">
<circle fill="#FFFFFF" cx="150.236" cy="150.236" r="136.063"/>
<path fill="none" stroke="#000000" stroke-width="19.8425" stroke-miterlimit="10" d="M286.382,149.846
	c0,73.33-60.945,132.774-136.118,132.774c-75.173,0-136.115-59.444-136.115-132.774c0-73.323,60.942-132.761,136.115-132.761
	C225.437,17.085,286.382,76.523,286.382,149.846z"/>
<polygon points="80.883,64.39 80.883,62.879 83.257,61.792 87.052,61.792 89,63.091 89,64.39 89,76.078 100.364,73.156 
	113.351,71.208 132.035,71.208 148.91,74.779 163.676,80.299 176.338,83.221 185.429,83.221 196.793,81.434 206.818,78.538 
	211.116,76.405 215.992,73.663 219.52,72.506 219.52,164.39 213.344,167.582 205.559,170.559 190.299,173.156 169.195,173.156 
	154.749,170.703 142.896,166.662 126.319,162.354 111.725,161.868 100.688,164.39 93.87,167.637 89.974,171.208 89.649,236.792 
	87.701,238.416 85.753,238.416 83.156,238.416 80.883,236.792 "/>
</svg>
