<?xml version="1.0" encoding="utf-8"?>
<!-- Generator: Adobe Illustrator 16.0.0, SVG Export Plug-In . SVG Version: 6.00 Build 0)  -->
<!DOCTYPE svg PUBLIC "-//W3C//DTD SVG 1.1//EN" "http://www.w3.org/Graphics/SVG/1.1/DTD/svg11.dtd">
<svg version="1.1" id="Lager_1" xmlns="http://www.w3.org/2000/svg" xmlns:xlink="http://www.w3.org/1999/xlink" x="0px" y="0px"
	 width="300.473px" height="300.473px" viewBox="0 0 300.473 300.473" enable-background="new 0 0 300.473 300.473"
	 xml:space="preserve">
<circle fill="#FFFFFF" cx="150.236" cy="150.236" r="138.898"/>
<path fill="none" stroke="#009036" stroke-width="19.8425" stroke-miterlimit="10" d="M272.126,150.23
	c0,67.322-54.575,121.896-121.891,121.896S28.346,217.552,28.346,150.23c0-67.316,54.573-121.884,121.889-121.884
	S272.126,82.914,272.126,150.23z"/>
<path fill="#009036" stroke="#009036" stroke-miterlimit="10" d="M162.189,64.174h9.403l6.018,3.981l2.069,4.889l0.94,9.216
	l0.94,1.316l12.224,8.275l11.849,13.917l17.303,24.637l9.403,25.201l4.138,16.174l0.94,12.601h-10.908l3.761,33.101h-23.32
	l-0.188-1.505l13.353-5.642l-6.959-19.56l-0.376-5.642l-10.908-0.188l-1.128,7.335l-6.582,21.628l-1.881,5.078l-50.026,0.767v-2.271
	l10.344-3.762l-4.89-20.123l-2.633-16.926l-6.206,15.421l-4.514,15.422v11.66l-26.518-0.188l0.752-2.821l11.848-3.009l4.514-25.014
	l8.275-43.632l-0.752-10.908l-7.711-17.678l-8.463-7.899l-16.738,15.798l-16.55,14.293l-2.257,0.188v2.068l1.88,1.136l0.564,1.874
	l-3.573,0.564L78,141.509l-2.511,0.455l-2.445,1.983l12.413,75.807h-5.642l-11.472-75.242v-1.693l-1.505-0.854v-2.719l26.142-22.568
	l11.284-17.491l3.197-8.839l-0.376-4.137l-6.395-0.752l-6.394-4.514l-3.385-8.275l0.564-7.146l6.708-6.771l5.705-1.129l7.899,2.069
	l5.642,5.078l0.94,4.326l0.752,6.395l9.027,2.821l8.839,5.454l13.249,11.848l9.508,12.789l3.762,11.66l6.582-1.505l3.762-2.821
	V99.562l-3.386-8.087l-5.642-0.188l-7.335-3.95l-3.617-7.146v-8.677l3.617-4.488L162.189,64.174z M165.198,136.047l0.376,14.453
	l-3.573,11.313v21.44l3.009,24.448l2.257,5.078l3.762,3.386l14.669-5.454l4.514-26.706h-4.325l5.642-33.769l-1.692-11.549
	l-6.958-15.429l-4.138,1.88l-8.84,6.958h-4.89L165.198,136.047z"/>
</svg>
