<?xml version="1.0" encoding="utf-8"?>
<!-- Generator: Adobe Illustrator 16.0.0, SVG Export Plug-In . SVG Version: 6.00 Build 0)  -->
<!DOCTYPE svg PUBLIC "-//W3C//DTD SVG 1.1//EN" "http://www.w3.org/Graphics/SVG/1.1/DTD/svg11.dtd">
<svg version="1.1" id="Lager_1" xmlns="http://www.w3.org/2000/svg" xmlns:xlink="http://www.w3.org/1999/xlink" x="0px" y="0px"
	 width="300.473px" height="300.473px" viewBox="0 0 300.473 300.473" enable-background="new 0 0 300.473 300.473"
	 xml:space="preserve">
<circle fill="#FFFFFF" cx="150.236" cy="150.236" r="138.898"/>
<path fill="none" stroke="#009036" stroke-width="19.8425" stroke-miterlimit="10" d="M272.126,150.23
	c0,67.322-54.575,121.896-121.891,121.896S28.346,217.552,28.346,150.23c0-67.316,54.573-121.884,121.889-121.884
	S272.126,82.914,272.126,150.23z"/>
<path fill="#009036" d="M227.125,84.125"/>
<g>
	<g>
		<polygon fill="#009036" points="144.104,105.666 154.957,52.666 165.122,52.666 161.997,98.291 156.25,98.541 153.5,100.541 
			151.625,103.541 151,105.666 		"/>
		<polygon fill="#009036" points="140.329,127.483 89.305,144.924 84.079,136.02 125.207,116.023 128.127,120.595 131.23,121.984 
			134.766,122.119 136.919,121.602 		"/>
		<polygon fill="#009036" points="160.964,119.012 201.948,154.078 197.109,162.894 159.023,137.579 161.193,133.011 
			160.818,129.632 159.141,126.518 157.604,124.921 		"/>
	</g>
	<ellipse fill="#009036" cx="148.15" cy="117.542" rx="10.747" ry="10.802"/>
	<polygon fill="#009036" points="137.403,243.131 144.625,126.359 152.4,126.359 158.896,243.131 	"/>
</g>
</svg>
