<?xml version="1.0" encoding="utf-8"?>
<!-- Generator: Adobe Illustrator 16.0.0, SVG Export Plug-In . SVG Version: 6.00 Build 0)  -->
<!DOCTYPE svg PUBLIC "-//W3C//DTD SVG 1.1//EN" "http://www.w3.org/Graphics/SVG/1.1/DTD/svg11.dtd">
<svg version="1.1" id="Lager_1" xmlns="http://www.w3.org/2000/svg" xmlns:xlink="http://www.w3.org/1999/xlink" x="0px" y="0px"
	 width="300.473px" height="300.473px" viewBox="0 0 300.473 300.473" enable-background="new 0 0 300.473 300.473"
	 xml:space="preserve">
<circle fill="#FFFFFF" cx="150.236" cy="150.236" r="138.898"/>
<path fill="none" stroke="#009036" stroke-width="19.8425" stroke-miterlimit="10" d="M272.126,150.23
	c0,67.322-54.575,121.896-121.891,121.896S28.346,217.552,28.346,150.23c0-67.316,54.573-121.884,121.889-121.884
	S272.126,82.914,272.126,150.23z"/>
<polyline fill="none" stroke="#009036" stroke-width="7" stroke-miterlimit="10" points="168.387,144.753 108.642,215.314 
	103.319,230.164 150.579,98.315 197.153,230.164 191.958,215.458 132.771,144.753 "/>
<ellipse fill="#009036" stroke="#009036" stroke-width="7" stroke-miterlimit="10" cx="150.236" cy="95.457" rx="10.747" ry="10.801"/>
<path fill="none" stroke="#009036" stroke-width="7" stroke-miterlimit="10" d="M115.931,60.664
	c-35.909,34.146-1.762,71.429-1.762,71.429"/>
<path fill="none" stroke="#009036" stroke-width="7" stroke-miterlimit="10" d="M184.541,60.664
	c35.908,34.146,1.762,71.429,1.762,71.429"/>
<path fill="none" stroke="#009036" stroke-width="7" stroke-miterlimit="10" d="M167.726,73.033c23.345,19.164,0,46.69,0,46.69"/>
<path fill="none" stroke="#009036" stroke-width="7" stroke-miterlimit="10" d="M132.747,73.033c-23.345,19.164,0,46.689,0,46.689"
	/>
</svg>
